<svg width="225" height="76" viewBox="0 0 368 125" fill="none" xmlns="http://www.w3.org/2000/svg">
<path fill-rule="evenodd" clip-rule="evenodd" d="M79 0H0V125H79V81.6532H41.5256V62.5H79V0Z" fill="white"/>
<path d="M149.784 108.652C143.384 108.652 137.581 107.159 132.376 104.172C127.256 101.185 123.16 97.132 120.088 92.012C117.101 86.892 115.608 81.1747 115.608 74.86C115.608 68.6307 117.059 62.956 119.96 57.836C122.861 52.716 126.787 48.6627 131.736 45.676C136.685 42.6893 142.232 41.196 148.376 41.196C154.349 41.196 159.683 42.732 164.376 45.804C169.155 48.7907 172.909 52.8867 175.64 58.092C178.456 63.212 179.864 69.0147 179.864 75.5V79.084H128.536C129.133 82.5827 130.413 85.74 132.376 88.556C134.424 91.372 136.984 93.5907 140.056 95.212C143.213 96.8333 146.627 97.644 150.296 97.644C153.539 97.644 156.568 97.1747 159.384 96.236C162.285 95.212 164.76 93.804 166.808 92.012L175 100.076C171.245 102.977 167.32 105.153 163.224 106.604C159.128 107.969 154.648 108.652 149.784 108.652ZM128.536 69.356H167.064C166.467 66.028 165.272 63.084 163.48 60.524C161.688 57.8787 159.427 55.8307 156.696 54.38C154.051 52.844 151.149 52.076 147.992 52.076C144.749 52.076 141.763 52.8013 139.032 54.252C136.301 55.7027 134.04 57.7507 132.248 60.396C130.456 62.956 129.219 65.9427 128.536 69.356ZM217.956 108.652C211.641 108.652 206.82 107.201 203.492 104.3C200.164 101.313 198.5 97.004 198.5 91.372V53.1H184.676V42.348H198.5V25.708L211.3 22.636V42.348H230.5V53.1H211.3V88.428C211.3 91.756 212.025 94.1453 213.476 95.596C214.927 96.9613 217.401 97.644 220.9 97.644C222.607 97.644 224.143 97.516 225.508 97.26C226.959 97.004 228.537 96.5773 230.244 95.98V106.86C228.537 107.457 226.532 107.884 224.228 108.14C221.924 108.481 219.833 108.652 217.956 108.652ZM233.881 107.5L259.225 74.092L234.905 42.348H250.009L266.777 64.62L283.417 42.348H298.009L273.945 73.964L299.545 107.5H284.441L266.521 83.436L248.345 107.5H233.881ZM332.909 108.652C326.509 108.652 320.706 107.159 315.501 104.172C310.381 101.185 306.285 97.132 303.213 92.012C300.226 86.892 298.733 81.1747 298.733 74.86C298.733 68.6307 300.184 62.956 303.085 57.836C305.986 52.716 309.912 48.6627 314.861 45.676C319.81 42.6893 325.357 41.196 331.501 41.196C337.474 41.196 342.808 42.732 347.501 45.804C352.28 48.7907 356.034 52.8867 358.765 58.092C361.581 63.212 362.989 69.0147 362.989 75.5V79.084H311.661C312.258 82.5827 313.538 85.74 315.501 88.556C317.549 91.372 320.109 93.5907 323.181 95.212C326.338 96.8333 329.752 97.644 333.421 97.644C336.664 97.644 339.693 97.1747 342.509 96.236C345.41 95.212 347.885 93.804 349.933 92.012L358.125 100.076C354.37 102.977 350.445 105.153 346.349 106.604C342.253 107.969 337.773 108.652 332.909 108.652ZM311.661 69.356H350.189C349.592 66.028 348.397 63.084 346.605 60.524C344.813 57.8787 342.552 55.8307 339.821 54.38C337.176 52.844 334.274 52.076 331.117 52.076C327.874 52.076 324.888 52.8013 322.157 54.252C319.426 55.7027 317.165 57.7507 315.373 60.396C313.581 62.956 312.344 65.9427 311.661 69.356Z" fill="white"/>
</svg>
